<svg width="635" height="537" viewBox="0 0 635 537" fill="none" xmlns="http://www.w3.org/2000/svg">
<path d="M553.214 529.712L633 209.272L383.301 0L40.633 117.106L2 373.535L144.894 529.712H553.214Z" fill="#FFEADC"/>
<path d="M467.13 43.7929H343.036C340.272 43.7929 338.031 46.0342 338.031 48.799V49.0278C338.031 51.7926 340.272 54.034 343.036 54.034H467.13C469.894 54.034 472.134 51.7926 472.134 49.0278V48.799C472.134 46.0342 469.894 43.7929 467.13 43.7929Z" fill="black" stroke="black" stroke-width="5" stroke-miterlimit="10"/>
<path d="M190.842 502.937H99.9035C97.1396 502.937 94.8989 505.179 94.8989 507.944V508.172C94.8989 510.937 97.1396 513.179 99.9035 513.179H190.842C193.606 513.179 195.847 510.937 195.847 508.172V507.944C195.847 505.179 193.606 502.937 190.842 502.937Z" fill="black" stroke="black" stroke-width="5" stroke-miterlimit="10"/>
<path d="M300.23 534C302.742 534 304.777 531.964 304.777 529.452C304.777 526.939 302.742 524.903 300.23 524.903C297.719 524.903 295.683 526.939 295.683 529.452C295.683 531.964 297.719 534 300.23 534Z" fill="black" stroke="black" stroke-width="5" stroke-miterlimit="10"/>
<path d="M50.7488 467.145C53.2601 467.145 55.296 465.109 55.296 462.596C55.296 460.084 53.2601 458.048 50.7488 458.048C48.2375 458.048 46.2017 460.084 46.2017 462.596C46.2017 465.109 48.2375 467.145 50.7488 467.145Z" fill="black" stroke="black" stroke-width="5" stroke-miterlimit="10"/>
<path d="M555.904 517.056C561.536 517.056 566.102 512.489 566.102 506.855C566.102 501.221 561.536 496.653 555.904 496.653C550.271 496.653 545.705 501.221 545.705 506.855C545.705 512.489 550.271 517.056 555.904 517.056Z" fill="black" stroke="black" stroke-width="5" stroke-miterlimit="10"/>
<path d="M587.028 241.253C589.539 241.253 591.575 239.217 591.575 236.705C591.575 234.193 589.539 232.156 587.028 232.156C584.516 232.156 582.48 234.193 582.48 236.705C582.48 239.217 584.516 241.253 587.028 241.253Z" fill="black" stroke="black" stroke-width="5" stroke-miterlimit="10"/>
<path d="M57.9855 288.912C59.24 288.912 60.2571 287.895 60.2571 286.64C60.2571 285.385 59.24 284.368 57.9855 284.368C56.7309 284.368 55.7139 285.385 55.7139 286.64C55.7139 287.895 56.7309 288.912 57.9855 288.912Z" fill="black" stroke="black" stroke-width="5" stroke-miterlimit="10"/>
<path d="M373.529 118.668C376.04 118.668 378.076 116.632 378.076 114.119C378.076 111.607 376.04 109.571 373.529 109.571C371.017 109.571 368.982 111.607 368.982 114.119C368.982 116.632 371.017 118.668 373.529 118.668Z" fill="black" stroke="black" stroke-width="5" stroke-miterlimit="10"/>
<path d="M216.035 73.4589C221.918 73.4589 226.687 68.6883 226.687 62.8036C226.687 56.9188 221.918 52.1483 216.035 52.1483C210.152 52.1483 205.383 56.9188 205.383 62.8036C205.383 68.6883 210.152 73.4589 216.035 73.4589Z" fill="black" stroke="black" stroke-width="5" stroke-miterlimit="10"/>
<path d="M453.165 86.4969H582.264C586.447 86.4969 590.46 88.1594 593.418 91.1187C596.377 94.078 598.039 98.0917 598.039 102.277V195.677H437.39V102.277C437.39 98.0917 439.052 94.078 442.01 91.1187C444.969 88.1594 448.981 86.4969 453.165 86.4969V86.4969Z" stroke="black" stroke-width="4" stroke-miterlimit="10"/>
<path d="M582.485 116.198H451.292" stroke="#231F20" stroke-width="4" stroke-linecap="round" stroke-linejoin="round"/>
<path d="M456.253 106.332C458.995 106.332 461.218 104.108 461.218 101.365C461.218 98.6224 458.995 96.3988 456.253 96.3988C453.511 96.3988 451.288 98.6224 451.288 101.365C451.288 104.108 453.511 106.332 456.253 106.332Z" stroke="#231F20" stroke-width="4" stroke-linecap="round" stroke-linejoin="round"/>
<path d="M471.2 106.332C473.942 106.332 476.165 104.108 476.165 101.365C476.165 98.6224 473.942 96.3988 471.2 96.3988C468.458 96.3988 466.235 98.6224 466.235 101.365C466.235 104.108 468.458 106.332 471.2 106.332Z" stroke="#231F20" stroke-width="4" stroke-linecap="round" stroke-linejoin="round"/>
<path d="M486.147 106.332C488.889 106.332 491.112 104.108 491.112 101.365C491.112 98.6224 488.889 96.3988 486.147 96.3988C483.404 96.3988 481.181 98.6224 481.181 101.365C481.181 104.108 483.404 106.332 486.147 106.332Z" stroke="#231F20" stroke-width="4" stroke-linecap="round" stroke-linejoin="round"/>
<path d="M582.745 106.656L573.871 97.7795" stroke="#231F20" stroke-width="4" stroke-linecap="round" stroke-linejoin="round"/>
<path d="M573.871 106.656L582.745 97.7795" stroke="#231F20" stroke-width="4" stroke-linecap="round" stroke-linejoin="round"/>
<path d="M35.3563 89.0178H164.451C168.635 89.0178 172.647 90.6803 175.606 93.6396C178.564 96.5988 180.226 100.613 180.226 104.798V267.748H19.5813V104.798C19.5813 100.613 21.2433 96.5988 24.2017 93.6396C27.1601 90.6803 31.1725 89.0178 35.3563 89.0178Z" stroke="black" stroke-width="4" stroke-miterlimit="10"/>
<path d="M164.664 118.719H33.4751" stroke="#231F20" stroke-width="4" stroke-linecap="round" stroke-linejoin="round"/>
<path d="M38.4361 108.853C41.1783 108.853 43.4013 106.629 43.4013 103.886C43.4013 101.143 41.1783 98.9196 38.4361 98.9196C35.6939 98.9196 33.4709 101.143 33.4709 103.886C33.4709 106.629 35.6939 108.853 38.4361 108.853Z" stroke="#231F20" stroke-width="4" stroke-linecap="round" stroke-linejoin="round"/>
<path d="M53.3831 108.853C56.1253 108.853 58.3483 106.629 58.3483 103.886C58.3483 101.143 56.1253 98.9196 53.3831 98.9196C50.641 98.9196 48.418 101.143 48.418 103.886C48.418 106.629 50.641 108.853 53.3831 108.853Z" stroke="#231F20" stroke-width="4" stroke-linecap="round" stroke-linejoin="round"/>
<path d="M68.3299 108.853C71.0721 108.853 73.2951 106.629 73.2951 103.886C73.2951 101.143 71.0721 98.9196 68.3299 98.9196C65.5877 98.9196 63.3647 101.143 63.3647 103.886C63.3647 106.629 65.5877 108.853 68.3299 108.853Z" stroke="#231F20" stroke-width="4" stroke-linecap="round" stroke-linejoin="round"/>
<path d="M164.928 109.176L156.055 100.296" stroke="#231F20" stroke-width="4" stroke-linecap="round" stroke-linejoin="round"/>
<path d="M156.055 109.176L164.928 100.296" stroke="#231F20" stroke-width="4" stroke-linecap="round" stroke-linejoin="round"/>
<path d="M147.252 141.276H515.165C519.348 141.276 523.361 142.939 526.319 145.898C529.278 148.858 530.94 152.871 530.94 157.056V473.788H131.477V157.056C131.477 152.871 133.139 148.858 136.098 145.898C139.056 142.939 143.069 141.276 147.252 141.276Z" fill="black" stroke="black" stroke-width="5" stroke-miterlimit="10"/>
<path d="M147.252 149.115H505.345C509.529 149.115 513.541 150.778 516.499 153.737C519.458 156.696 521.12 160.71 521.12 164.895V473.784H131.477V164.895C131.477 160.71 133.139 156.696 136.098 153.737C139.056 150.778 143.069 149.115 147.252 149.115Z" fill="white" stroke="black" stroke-width="4" stroke-miterlimit="10"/>
<path d="M464.338 257.254H617.225C621.409 257.254 625.421 258.917 628.38 261.876C631.338 264.835 633 268.849 633 273.034V427.676H448.563V273.034C448.563 268.849 450.225 264.835 453.183 261.876C456.142 258.917 460.154 257.254 464.338 257.254V257.254Z" stroke="black" stroke-width="4" stroke-miterlimit="10"/>
<path d="M619.299 286.956H462.457" stroke="#231F20" stroke-width="4" stroke-linecap="round" stroke-linejoin="round"/>
<path d="M467.418 277.089C470.16 277.089 472.383 274.866 472.383 272.123C472.383 269.38 470.16 267.156 467.418 267.156C464.675 267.156 462.452 269.38 462.452 272.123C462.452 274.866 464.675 277.089 467.418 277.089Z" stroke="#231F20" stroke-width="4" stroke-linecap="round" stroke-linejoin="round"/>
<path d="M482.365 277.089C485.107 277.089 487.33 274.866 487.33 272.123C487.33 269.38 485.107 267.156 482.365 267.156C479.622 267.156 477.399 269.38 477.399 272.123C477.399 274.866 479.622 277.089 482.365 277.089Z" stroke="#231F20" stroke-width="4" stroke-linecap="round" stroke-linejoin="round"/>
<path d="M497.311 277.089C500.054 277.089 502.277 274.866 502.277 272.123C502.277 269.38 500.054 267.156 497.311 267.156C494.569 267.156 492.346 269.38 492.346 272.123C492.346 274.866 494.569 277.089 497.311 277.089Z" stroke="#231F20" stroke-width="4" stroke-linecap="round" stroke-linejoin="round"/>
<path d="M619.299 277.413L610.426 268.537" stroke="#231F20" stroke-width="4" stroke-linecap="round" stroke-linejoin="round"/>
<path d="M610.426 277.413L619.299 268.537" stroke="#231F20" stroke-width="4" stroke-linecap="round" stroke-linejoin="round"/>
<path d="M507.21 178.817H145.371" stroke="#231F20" stroke-width="4" stroke-linecap="round" stroke-linejoin="round"/>
<path d="M150.336 168.95C153.078 168.95 155.301 166.727 155.301 163.984C155.301 161.241 153.078 159.017 150.336 159.017C147.594 159.017 145.371 161.241 145.371 163.984C145.371 166.727 147.594 168.95 150.336 168.95Z" stroke="#231F20" stroke-width="4" stroke-linecap="round" stroke-linejoin="round"/>
<path d="M165.283 168.95C168.025 168.95 170.248 166.727 170.248 163.984C170.248 161.241 168.025 159.017 165.283 159.017C162.541 159.017 160.318 161.241 160.318 163.984C160.318 166.727 162.541 168.95 165.283 168.95Z" stroke="#231F20" stroke-width="4" stroke-linecap="round" stroke-linejoin="round"/>
<path d="M180.226 168.95C182.968 168.95 185.191 166.727 185.191 163.984C185.191 161.241 182.968 159.017 180.226 159.017C177.484 159.017 175.261 161.241 175.261 163.984C175.261 166.727 177.484 168.95 180.226 168.95Z" stroke="#231F20" stroke-width="4" stroke-linecap="round" stroke-linejoin="round"/>
<path d="M507.21 169.274L498.337 160.398" stroke="#231F20" stroke-width="4" stroke-linecap="round" stroke-linejoin="round"/>
<path d="M498.337 169.274L507.21 160.398" stroke="#231F20" stroke-width="4" stroke-linecap="round" stroke-linejoin="round"/>
<path d="M17.775 307.532H200.26C204.444 307.532 208.456 309.195 211.415 312.154C214.373 315.113 216.035 319.127 216.035 323.312V407.099H2V323.312C2 319.127 3.662 315.113 6.62039 312.154C9.57878 309.195 13.5912 307.532 17.775 307.532V307.532Z" stroke="black" stroke-width="4" stroke-miterlimit="10"/>
<path d="M203.384 337.234H15.8938" stroke="#231F20" stroke-width="4" stroke-linecap="round" stroke-linejoin="round"/>
<path d="M20.8551 327.368C23.5973 327.368 25.8203 325.144 25.8203 322.401C25.8203 319.658 23.5973 317.434 20.8551 317.434C18.1129 317.434 15.8899 319.658 15.8899 322.401C15.8899 325.144 18.1129 327.368 20.8551 327.368Z" stroke="#231F20" stroke-width="4" stroke-linecap="round" stroke-linejoin="round"/>
<path d="M35.8018 327.368C38.544 327.368 40.767 325.144 40.767 322.401C40.767 319.658 38.544 317.434 35.8018 317.434C33.0597 317.434 30.8367 319.658 30.8367 322.401C30.8367 325.144 33.0597 327.368 35.8018 327.368Z" stroke="#231F20" stroke-width="4" stroke-linecap="round" stroke-linejoin="round"/>
<path d="M50.7486 327.368C53.4908 327.368 55.7138 325.144 55.7138 322.401C55.7138 319.658 53.4908 317.434 50.7486 317.434C48.0064 317.434 45.7834 319.658 45.7834 322.401C45.7834 325.144 48.0064 327.368 50.7486 327.368Z" stroke="#231F20" stroke-width="4" stroke-linecap="round" stroke-linejoin="round"/>
<path d="M330.55 262.505L339.751 285.997L343.387 283.977" stroke="#FF2B4A" stroke-miterlimit="10"/>
<path d="M249.537 272.497L249.92 257.506" stroke="#FF2B4A" stroke-miterlimit="10"/>
<path d="M384.599 252.871C387.821 258.43 390.187 263.424 390.187 263.424C390.187 263.424 410.3 213.323 412.931 207.536C415.561 201.749 430.149 194.715 435.41 192.809C440.86 190.837 447.308 190.166 444.745 195.441C443.562 197.871 436.329 201.618 436.329 201.618C436.329 201.618 449.608 201.358 452.104 199.91C454.6 198.462 467.879 187.156 470.505 185.839C473.132 184.521 477.64 184.852 476.685 188.797C476.685 188.797 480.956 187.219 482.534 189.062C484.111 190.904 482.699 194.06 481.319 195.571C481.825 195.68 482.295 195.915 482.686 196.254C483.077 196.593 483.376 197.026 483.555 197.512C484.111 199.153 482.139 203.887 478.164 207.867C478.164 207.867 479.612 210.593 477.344 213.848C475.076 217.102 469.587 222.361 464.33 224.286C459.073 226.211 442.245 230.484 440.797 230.484C439.35 230.484 429.956 284.166 428.043 295.642C426.158 306.972 419.252 351.266 392.289 351.266C385.257 351.266 376.12 345.838 370.07 334.954C354.819 307.599 342.069 274.245 342.069 274.245L384.599 252.871Z" fill="#FEB0A3"/>
<path d="M390.187 263.424C390.187 263.424 388.882 260.662 386.89 256.974L385.194 278.02L390.187 263.424Z" fill="#FD8571"/>
<path d="M202.918 257.506C194.708 243.226 182.135 221.402 179.875 217.844C176.472 212.475 161.174 206.51 155.578 206.364C149.981 206.218 145.079 206.364 146.696 210.258C148.081 213.587 155.881 215.217 155.881 215.217C155.881 215.217 142.697 216.795 140.024 215.702C137.35 214.609 122.636 205.252 119.851 204.313C117.067 203.374 112.65 204.313 114.141 208.096C114.141 208.096 109.692 207.126 108.383 209.165C107.074 211.205 108.911 214.136 110.485 215.445C109.999 215.623 109.567 215.921 109.227 216.311C108.887 216.7 108.651 217.169 108.541 217.674C108.213 219.379 110.82 223.797 115.308 227.186C115.308 227.186 114.255 230.089 116.949 232.997C119.642 235.904 125.806 240.354 131.28 241.533C136.754 242.713 154.012 244.622 155.444 244.421C156.311 244.299 163.647 263.669 170.386 280.774C172.358 285.78 189.316 336.792 200.623 346.927C211.93 357.061 234.295 371.385 250.062 322.073C265.829 272.762 253.075 261.321 253.075 261.321L220.212 261.057L213.385 274.253C213.385 274.253 205.103 261.309 202.918 257.506Z" fill="#FEB0A3"/>
<path d="M217.372 266.536L218.697 284.368L213.373 274.253L217.372 266.536Z" fill="#FD8571"/>
<path d="M358.515 327.115C365.614 337.723 379.287 427.763 378.234 473.788H241.508C241.508 473.788 237.036 365.862 250.184 329.569C263.333 293.275 358.515 327.115 358.515 327.115Z" fill="#0061FA"/>
<path d="M295.407 390.85L297.245 469.749" stroke="black" stroke-width="4" stroke-linecap="round" stroke-linejoin="round"/>
<path d="M267.746 138.523C266.823 137.233 264.173 136.945 262.705 137.537C261.982 137.866 261.348 138.364 260.856 138.988C260.364 139.613 260.029 140.346 259.878 141.127C259.593 142.697 259.788 144.316 260.438 145.774C261.096 147.338 262.093 148.738 263.356 149.871C264.62 151.004 266.119 151.842 267.746 152.326" fill="#FD8571"/>
<path d="M318.936 211.481C329.059 211.919 348.569 211.382 355.877 213.848C366.395 217.398 387.076 257.333 387.076 257.333L345.623 282.888C345.623 282.888 358.334 311.627 358.286 311.876C358.109 312.752 358.507 327.115 358.507 327.115L250.184 329.569L249.305 275.74C249.305 275.74 217.581 266.099 212.849 264.694C212.849 264.694 227.295 224.215 242.581 219.521C257.634 214.901 282.412 210.692 282.412 210.692L318.936 211.481Z" fill="#FF2B4A"/>
<path d="M294.011 276.091C296.529 276.091 298.57 274.049 298.57 271.531C298.57 269.012 296.529 266.97 294.011 266.97C291.493 266.97 289.452 269.012 289.452 271.531C289.452 274.049 291.493 276.091 294.011 276.091Z" fill="black" stroke="black" stroke-width="5" stroke-miterlimit="10"/>
<path d="M301.331 128.242L307.968 210.692L318.944 211.481C318.944 211.481 313.162 230.286 291.988 230.286C270.814 230.286 267.493 213.41 267.493 213.41L276.903 211.556L282.424 163.222L295.139 126.14L301.331 128.242Z" fill="#FEB0A3"/>
<path d="M279.936 185.026C287.342 183.949 296.807 176.505 296.807 176.505V163.703L281.947 167.447L279.936 185.026Z" fill="#FD8571"/>
<path d="M311.265 211.481L294.09 268.209L274.604 212.112" stroke="black" stroke-width="5" stroke-linecap="round" stroke-linejoin="round"/>
<path d="M296.807 163.704C290.324 169.664 277.175 175.803 269.816 168.086C262.457 160.37 268.937 121.974 268.937 121.974L298.562 123.552L296.807 163.704Z" fill="#FEB0A3"/>
<path d="M303.18 144.661H303.133L303.291 144.685C303.253 144.678 303.216 144.668 303.18 144.653L303.322 144.712C303.287 144.696 303.254 144.676 303.224 144.653L303.342 144.748L303.251 144.657L303.346 144.775C303.319 144.743 303.296 144.707 303.279 144.669L303.338 144.811C303.324 144.776 303.312 144.741 303.302 144.704L303.326 144.862C303.32 144.824 303.32 144.786 303.326 144.748L303.302 144.905C303.309 144.875 303.318 144.844 303.33 144.815L303.271 144.957C303.284 144.924 303.303 144.893 303.326 144.866L303.231 144.984C303.256 144.955 303.284 144.929 303.314 144.905L303.196 144.996C303.226 144.973 303.26 144.953 303.295 144.937L303.153 144.996C303.192 144.98 303.233 144.969 303.275 144.965L303.117 144.984C303.151 144.98 303.186 144.98 303.22 144.984L303.062 144.965C303.093 144.968 303.124 144.976 303.153 144.988L303.015 144.929C303.042 144.94 303.067 144.954 303.089 144.973L302.971 144.882C302.997 144.9 303.02 144.923 303.038 144.949L302.947 144.831C302.968 144.859 302.987 144.89 303.003 144.921L302.94 144.779C302.956 144.816 302.966 144.854 302.971 144.894V144.736C302.975 144.775 302.975 144.815 302.971 144.854L302.995 144.696C302.987 144.732 302.978 144.768 302.967 144.803L303.026 144.661L302.983 144.736L303.074 144.614C303.057 144.637 303.037 144.659 303.015 144.677L303.133 144.586L303.058 144.625L303.2 144.566C303.171 144.578 303.14 144.586 303.109 144.59L303.267 144.57H303.16L303.318 144.59C303.276 144.586 303.235 144.575 303.196 144.558L303.338 144.618L303.247 144.566L303.369 144.657L303.302 144.59L303.397 144.708C303.382 144.689 303.368 144.668 303.358 144.645L303.417 144.787C303.417 144.787 303.417 144.756 303.417 144.74C303.374 144.593 303.277 144.467 303.145 144.389C303.075 144.34 302.993 144.312 302.908 144.31C302.831 144.286 302.748 144.286 302.671 144.31C302.597 144.329 302.527 144.363 302.466 144.41C302.405 144.457 302.354 144.515 302.316 144.582C302.238 144.72 302.217 144.883 302.257 145.036C302.295 145.182 302.367 145.317 302.466 145.43L302.522 145.485C302.576 145.533 302.634 145.576 302.695 145.615C302.78 145.666 302.874 145.702 302.971 145.722C303.044 145.738 303.118 145.749 303.192 145.753C303.269 145.75 303.345 145.741 303.421 145.726C303.517 145.709 303.61 145.675 303.693 145.623C303.819 145.547 303.925 145.443 304.004 145.32C304.02 145.301 304.032 145.279 304.04 145.256C304.075 145.19 304.103 145.12 304.123 145.047C304.15 144.95 304.159 144.848 304.15 144.748C304.148 144.673 304.137 144.599 304.119 144.527C304.098 144.455 304.07 144.385 304.036 144.318C304.027 144.294 304.015 144.272 304 144.251C303.959 144.188 303.913 144.129 303.862 144.073C303.774 143.987 303.67 143.919 303.555 143.872C303.509 143.851 303.462 143.834 303.413 143.821C303.336 143.806 303.258 143.796 303.18 143.793C303.105 143.799 303.03 143.808 302.955 143.821L302.873 143.845C302.802 143.871 302.734 143.901 302.667 143.935C302.603 143.975 302.542 144.019 302.486 144.069L302.423 144.129C302.374 144.184 302.329 144.244 302.289 144.306C302.251 144.372 302.221 144.442 302.198 144.515C302.169 144.623 302.155 144.734 302.155 144.846C302.159 144.929 302.174 145.011 302.198 145.091C302.249 145.247 302.333 145.391 302.443 145.513L302.518 145.584C302.577 145.636 302.642 145.683 302.711 145.722C302.859 145.801 303.024 145.844 303.192 145.848C303.349 145.847 303.498 145.784 303.61 145.675C303.667 145.623 303.709 145.558 303.732 145.485C303.767 145.414 303.785 145.336 303.784 145.256C303.782 145.1 303.72 144.95 303.61 144.838C303.497 144.731 303.348 144.669 303.192 144.665L303.18 144.661Z" fill="#FF2B4A"/>
<path d="M298.57 133.722L293.112 128.432C293.112 128.432 282.002 133.56 277.621 133.284C273.239 133.008 260.181 131.268 263.774 114.171C263.774 114.171 267.805 117.765 271.662 117.591C275.519 117.417 281.564 113.646 289.278 114.171C296.992 114.695 303.212 120.877 305.227 128.432C307.242 135.986 308.662 141.939 308.173 146.184C307.684 150.429 303.697 157.932 303.697 157.932L302.119 138.152L298.57 133.722Z" fill="#FF2B4A"/>
<path d="M277.613 143.103L280.945 152.326L273.145 154.674L277.613 143.103Z" fill="#FF2B4A" stroke="#FF2B4A" stroke-width="2" stroke-linecap="round" stroke-linejoin="round"/>
<path d="M297.182 134.093C299.154 131.923 305.74 124.136 311.904 131.596C317.161 137.959 309.735 149.667 300.597 147.64C291.46 145.612 297.182 134.093 297.182 134.093Z" fill="#FEB0A3"/>
<path d="M286.66 144.973C287.387 144.973 287.977 144.136 287.977 143.103C287.977 142.07 287.387 141.233 286.66 141.233C285.932 141.233 285.343 142.07 285.343 143.103C285.343 144.136 285.932 144.973 286.66 144.973Z" fill="black"/>
<path d="M304.273 132.74C305.099 132.611 305.945 132.731 306.704 133.083C307.462 133.435 308.099 134.004 308.535 134.718C308.97 135.432 309.184 136.26 309.15 137.095C309.116 137.931 308.835 138.738 308.343 139.414" stroke="black" stroke-width="5" stroke-linecap="round" stroke-linejoin="round"/>
<path d="M287.22 153.952C285.745 154.118 284.351 154.71 283.206 155.655C282.061 156.6 281.216 157.857 280.772 159.273" stroke="black" stroke-width="5" stroke-linecap="round" stroke-linejoin="round"/>
<path d="M406.439 219.907C405.256 221.181 404.921 223.039 405.146 224.748C405.371 226.456 406.116 228.05 406.921 229.576C412.576 240.247 422.573 249.143 434.499 251.025C435.757 251.226 437.071 251.341 438.289 250.97C439.508 250.599 440.62 249.64 440.829 248.382C441.038 247.123 440.04 245.703 438.782 245.739" stroke="black" stroke-width="5" stroke-linecap="round" stroke-linejoin="round"/>
<path d="M476.516 207.824C475.641 207.556 474.698 207.624 473.87 208.013C473.05 208.402 472.28 208.887 471.574 209.457C467.705 212.317 463.486 215.059 458.706 215.611" stroke="black" stroke-width="5" stroke-linecap="round" stroke-linejoin="round"/>
<path d="M480.105 195.681C479.17 195.618 478.251 196.186 477.49 196.735C476.75 197.313 476.068 197.96 475.451 198.668C470.409 203.967 464.161 207.967 457.239 210.329" stroke="black" stroke-width="5" stroke-linecap="round" stroke-linejoin="round"/>
<path d="M475.139 189.823C472.517 190.825 470.308 192.683 468.34 194.687C466.372 196.691 464.586 198.881 462.5 200.758C460.414 202.636 457.949 204.222 455.184 204.703" stroke="black" stroke-width="5" stroke-linecap="round" stroke-linejoin="round"/>
<path d="M116.937 226.902C117.767 226.515 118.711 226.45 119.587 226.72C120.451 226.995 121.281 227.368 122.059 227.833C126.287 230.132 130.842 232.263 135.654 232.152" stroke="black" stroke-width="5" stroke-linecap="round" stroke-linejoin="round"/>
<path d="M111.707 215.386C112.626 215.193 113.616 215.631 114.444 216.065C115.254 216.537 116.019 217.084 116.728 217.698C122.454 222.248 129.194 225.348 136.375 226.732" stroke="black" stroke-width="5" stroke-linecap="round" stroke-linejoin="round"/>
<path d="M115.817 208.897C118.554 209.528 120.999 211.063 123.223 212.775C125.447 214.487 127.518 216.408 129.849 217.978C132.179 219.548 134.833 220.783 137.637 220.893" stroke="black" stroke-width="5" stroke-linecap="round" stroke-linejoin="round"/>
<path d="M271.279 145.662C271.834 145.662 272.285 145.025 272.285 144.239C272.285 143.452 271.834 142.815 271.279 142.815C270.724 142.815 270.273 143.452 270.273 144.239C270.273 145.025 270.724 145.662 271.279 145.662Z" fill="black"/>
</svg>
