<svg width="30" height="30" viewBox="0 0 30 30" fill="none" xmlns="http://www.w3.org/2000/svg">
<path fill-rule="evenodd" clip-rule="evenodd" d="M0 0V23.3331H18.6557V21.6665H1.66665V1.66665H24.1665V3.4333H25.8331V0H0ZM25.8331 8.33326C25.8331 8.77529 25.6575 9.19921 25.345 9.51177C25.0324 9.82432 24.6085 9.99992 24.1665 9.99992C23.7244 9.99992 23.3005 9.82432 22.988 9.51177C22.6754 9.19921 22.4998 8.77529 22.4998 8.33326C22.4998 7.89124 22.6754 7.46732 22.988 7.15476C23.3005 6.84221 23.7244 6.66661 24.1665 6.66661C24.6085 6.66661 25.0324 6.84221 25.345 7.15476C25.6575 7.46732 25.8331 7.89124 25.8331 8.33326ZM27.4998 8.33326C27.4998 9.21731 27.1486 10.0652 26.5235 10.6903C25.8984 11.3154 25.0505 11.6666 24.1665 11.6666C23.2824 11.6666 22.4346 11.3154 21.8095 10.6903C21.1843 10.0652 20.8332 9.21731 20.8332 8.33326C20.8332 7.44922 21.1843 6.60138 21.8095 5.97626C22.4346 5.35115 23.2824 4.99996 24.1665 4.99996C25.0505 4.99996 25.8984 5.35115 26.5235 5.97626C27.1486 6.60138 27.4998 7.44922 27.4998 8.33326V8.33326Z" fill="white"/>
<path fill-rule="evenodd" clip-rule="evenodd" d="M20.0774 13.1915C20.5421 12.7479 21.1599 12.5002 21.8024 12.4999H25.204C26.424 12.4999 27.5598 12.9149 28.4348 13.7415C29.2765 14.5365 29.7148 15.5557 29.894 16.5215C30.1756 18.0398 29.884 19.699 29.1665 21.1698V27.9164C29.1665 28.4392 28.97 28.9429 28.6159 29.3275C28.2618 29.7122 27.776 29.9496 27.255 29.9927C26.734 30.0358 26.2158 29.8815 25.8033 29.5603C25.3908 29.2391 25.1141 28.7746 25.0282 28.2589L24.5832 25.5889L24.1382 28.2589C24.0523 28.7746 23.7756 29.2391 23.3631 29.5603C22.9506 29.8815 22.4324 30.0358 21.9114 29.9927C21.3904 29.9496 20.9046 29.7122 20.5505 29.3275C20.1964 28.9429 19.9999 28.4392 19.9999 27.9164V20.0773C19.6199 20.2968 19.1887 20.4123 18.7499 20.4123H14.4983C13.8352 20.4123 13.1994 20.1489 12.7305 19.6801C12.2617 19.2112 11.9983 18.5754 11.9983 17.9123C11.9983 17.2493 12.2617 16.6134 12.7305 16.1446C13.1994 15.6757 13.8352 15.4124 14.4983 15.4124H17.7482L20.0774 13.1907V13.1915ZM21.6665 22.8956V27.9164C21.6668 28.0208 21.7063 28.1213 21.7771 28.1979C21.8479 28.2746 21.9449 28.3219 22.0489 28.3305C22.1529 28.3391 22.2564 28.3084 22.3388 28.2443C22.4212 28.1803 22.4766 28.0877 22.494 27.9847L23.3632 22.7715C23.3955 22.5769 23.4959 22.4001 23.6463 22.2725C23.7968 22.1449 23.9876 22.0749 24.1849 22.0748H24.9815C25.1788 22.0749 25.3696 22.1449 25.52 22.2725C25.6705 22.4001 25.7708 22.5769 25.8032 22.7715L26.6723 27.9847C26.6897 28.0877 26.7451 28.1803 26.8276 28.2443C26.91 28.3084 27.0134 28.3391 27.1175 28.3305C27.2215 28.3219 27.3185 28.2746 27.3893 28.1979C27.4601 28.1213 27.4995 28.0208 27.4998 27.9164V20.9715C27.4998 20.8381 27.5318 20.7066 27.5932 20.5881C28.2365 19.3465 28.4707 17.9857 28.2557 16.8257C28.1248 16.1207 27.819 15.4524 27.2907 14.9532C26.7515 14.444 26.0365 14.1665 25.204 14.1665H21.8032C21.589 14.1665 21.3824 14.249 21.2274 14.3965L18.6574 16.8482C18.5025 16.9962 18.2966 17.0788 18.0824 17.079H14.4983C14.2773 17.079 14.0653 17.1668 13.909 17.3231C13.7527 17.4794 13.6649 17.6913 13.6649 17.9123C13.6649 18.1333 13.7527 18.3453 13.909 18.5016C14.0653 18.6579 14.2773 18.7457 14.4983 18.7457H18.7499C18.9641 18.7455 19.17 18.6628 19.3249 18.5148L20.2582 17.6248C20.3763 17.5123 20.5248 17.4368 20.6854 17.4079C20.8459 17.379 21.0114 17.3978 21.1614 17.462C21.3113 17.5263 21.4391 17.6331 21.5289 17.7693C21.6187 17.9055 21.6666 18.065 21.6665 18.2282V22.8965V22.8956Z" fill="white"/>
</svg>
