<svg width="35" height="50" viewBox="0 0 35 50" fill="none" xmlns="http://www.w3.org/2000/svg">
<path d="M25 50H10V45H25V50ZM25 42.5H10L9.4425 37.5C9.14256 35.8461 8.64656 34.2339 7.965 32.6975C7.08 31.4475 6.1575 30.38 5.265 29.3375C3.64159 27.8158 2.33935 25.9844 1.43509 23.9513C0.530838 21.9183 0.0428797 19.7247 0 17.5C6.91606e-08 12.8587 1.84374 8.40752 5.12563 5.12563C8.40752 1.84374 12.8587 0 17.5 0C22.1413 0 26.5925 1.84374 29.8744 5.12563C33.1563 8.40752 35 12.8587 35 17.5C34.9496 19.7115 34.4613 21.8911 33.5631 23.9127C32.665 25.9343 31.3749 27.7577 29.7675 29.2775L29.725 29.3275C28.7786 30.4035 27.885 31.5248 27.0475 32.6875C26.3665 34.2281 25.8689 35.8433 25.565 37.5L25 42.5ZM17.5 5C14.186 5.00397 11.0089 6.3222 8.66555 8.66555C6.3222 11.0089 5.00397 14.186 5 17.5C5 21.36 6.61 23.2325 9.045 26.07C9.97 27.15 11.02 28.37 12.045 29.7975C13.289 32.2146 14.1388 34.8148 14.5625 37.5H20.44C20.8746 34.8226 21.7231 32.2291 22.955 29.8125C23.955 28.385 25.0025 27.1575 25.925 26.0775L25.9625 26.0325C28.3925 23.1825 30 21.3 30 17.5C29.996 14.186 28.6778 11.0089 26.3345 8.66555C23.9911 6.3222 20.814 5.00397 17.5 5V5Z" fill="white"/>
</svg>
