<svg width="166" height="31" viewBox="0 0 166 31" fill="none" xmlns="http://www.w3.org/2000/svg">
<path d="M9.78125 21.4062L15.4258 1.5625H18.1602L16.5781 9.27734L10.5039 30H7.78906L9.78125 21.4062ZM3.94141 1.5625L8.43359 21.0156L9.78125 30H7.08594L0.191406 1.5625H3.94141ZM25.4648 20.9961L29.8594 1.5625H33.6289L26.7539 30H24.0586L25.4648 20.9961ZM18.5703 1.5625L24.0586 21.4062L26.0508 30H23.3359L17.4766 9.27734L15.875 1.5625H18.5703ZM49.8008 25.1172V8.86719H53.4336V30H49.9766L49.8008 25.1172ZM50.4844 20.6641L51.9883 20.625C51.9883 22.0312 51.8385 23.3333 51.5391 24.5312C51.2526 25.7161 50.7839 26.7448 50.1328 27.6172C49.4818 28.4896 48.6289 29.1732 47.5742 29.668C46.5195 30.1497 45.237 30.3906 43.7266 30.3906C42.6979 30.3906 41.7539 30.2409 40.8945 29.9414C40.0482 29.6419 39.319 29.1797 38.707 28.5547C38.0951 27.9297 37.6198 27.1159 37.2812 26.1133C36.9557 25.1107 36.793 23.9062 36.793 22.5V8.86719H40.4062V22.5391C40.4062 23.4896 40.5104 24.2773 40.7188 24.9023C40.9401 25.5143 41.2331 26.0026 41.5977 26.3672C41.9753 26.7188 42.3919 26.9661 42.8477 27.1094C43.3164 27.2526 43.7982 27.3242 44.293 27.3242C45.8294 27.3242 47.0469 27.0312 47.9453 26.4453C48.8438 25.8464 49.4883 25.0456 49.8789 24.043C50.2826 23.0273 50.4844 21.901 50.4844 20.6641ZM62.5547 12.1875V30H58.9414V8.86719H62.457L62.5547 12.1875ZM69.1562 8.75L69.1367 12.1094C68.8372 12.0443 68.5508 12.0052 68.2773 11.9922C68.0169 11.9661 67.7174 11.9531 67.3789 11.9531C66.5456 11.9531 65.8099 12.0833 65.1719 12.3438C64.5339 12.6042 63.9935 12.9688 63.5508 13.4375C63.1081 13.9062 62.7565 14.4661 62.4961 15.1172C62.2487 15.7552 62.0859 16.4583 62.0078 17.2266L60.9922 17.8125C60.9922 16.5365 61.1159 15.3385 61.3633 14.2188C61.6237 13.099 62.0208 12.1094 62.5547 11.25C63.0885 10.3776 63.7656 9.70052 64.5859 9.21875C65.4193 8.72396 66.4089 8.47656 67.5547 8.47656C67.8151 8.47656 68.1146 8.50911 68.4531 8.57422C68.7917 8.6263 69.026 8.6849 69.1562 8.75ZM84.8008 24.3945C84.8008 23.8737 84.6836 23.3919 84.4492 22.9492C84.2279 22.4935 83.7656 22.0833 83.0625 21.7188C82.3724 21.3411 81.3307 21.0156 79.9375 20.7422C78.7656 20.4948 77.7044 20.2018 76.7539 19.8633C75.8164 19.5247 75.0156 19.1146 74.3516 18.6328C73.7005 18.151 73.1992 17.5846 72.8477 16.9336C72.4961 16.2826 72.3203 15.5208 72.3203 14.6484C72.3203 13.8151 72.5026 13.0273 72.8672 12.2852C73.2448 11.543 73.7721 10.8854 74.4492 10.3125C75.1393 9.73958 75.9661 9.29036 76.9297 8.96484C77.8932 8.63932 78.9674 8.47656 80.1523 8.47656C81.8451 8.47656 83.2904 8.77604 84.4883 9.375C85.6862 9.97396 86.6042 10.7747 87.2422 11.7773C87.8802 12.7669 88.1992 13.8672 88.1992 15.0781H84.5859C84.5859 14.4922 84.4102 13.9258 84.0586 13.3789C83.7201 12.819 83.2188 12.3568 82.5547 11.9922C81.9036 11.6276 81.1029 11.4453 80.1523 11.4453C79.1497 11.4453 78.3359 11.6016 77.7109 11.9141C77.099 12.2135 76.6497 12.5977 76.3633 13.0664C76.0898 13.5352 75.9531 14.0299 75.9531 14.5508C75.9531 14.9414 76.0182 15.293 76.1484 15.6055C76.2917 15.9049 76.5391 16.1849 76.8906 16.4453C77.2422 16.6927 77.737 16.9271 78.375 17.1484C79.013 17.3698 79.8268 17.5911 80.8164 17.8125C82.5482 18.2031 83.974 18.6719 85.0938 19.2188C86.2135 19.7656 87.0469 20.4362 87.5938 21.2305C88.1406 22.0247 88.4141 22.9883 88.4141 24.1211C88.4141 25.0456 88.2188 25.8919 87.8281 26.6602C87.4505 27.4284 86.8971 28.0924 86.168 28.6523C85.4518 29.1992 84.5924 29.6289 83.5898 29.9414C82.6003 30.2409 81.487 30.3906 80.25 30.3906C78.388 30.3906 76.8125 30.0586 75.5234 29.3945C74.2344 28.7305 73.2578 27.8711 72.5938 26.8164C71.9297 25.7617 71.5977 24.6484 71.5977 23.4766H75.2305C75.2826 24.4661 75.569 25.2539 76.0898 25.8398C76.6107 26.4128 77.2487 26.8229 78.0039 27.0703C78.7591 27.3047 79.5078 27.4219 80.25 27.4219C81.2396 27.4219 82.0664 27.2917 82.7305 27.0312C83.4076 26.7708 83.9219 26.4128 84.2734 25.957C84.625 25.5013 84.8008 24.9805 84.8008 24.3945ZM102.008 8.86719V11.6406H90.582V8.86719H102.008ZM94.4492 3.73047H98.0625V24.7656C98.0625 25.4818 98.1732 26.0221 98.3945 26.3867C98.6159 26.7513 98.9023 26.9922 99.2539 27.1094C99.6055 27.2266 99.9831 27.2852 100.387 27.2852C100.686 27.2852 100.999 27.2591 101.324 27.207C101.663 27.1419 101.917 27.0898 102.086 27.0508L102.105 30C101.819 30.0911 101.441 30.1758 100.973 30.2539C100.517 30.3451 99.9635 30.3906 99.3125 30.3906C98.4271 30.3906 97.6133 30.2148 96.8711 29.8633C96.1289 29.5117 95.5365 28.9258 95.0938 28.1055C94.6641 27.2721 94.4492 26.1523 94.4492 24.7461V3.73047ZM118.707 26.3867V15.5078C118.707 14.6745 118.538 13.9518 118.199 13.3398C117.874 12.7148 117.379 12.2331 116.715 11.8945C116.051 11.556 115.23 11.3867 114.254 11.3867C113.342 11.3867 112.542 11.543 111.852 11.8555C111.174 12.168 110.641 12.5781 110.25 13.0859C109.872 13.5938 109.684 14.1406 109.684 14.7266H106.07C106.07 13.9714 106.266 13.2227 106.656 12.4805C107.047 11.7383 107.607 11.0677 108.336 10.4688C109.078 9.85677 109.964 9.375 110.992 9.02344C112.034 8.65885 113.193 8.47656 114.469 8.47656C116.005 8.47656 117.359 8.73698 118.531 9.25781C119.716 9.77865 120.641 10.5664 121.305 11.6211C121.982 12.6628 122.32 13.9714 122.32 15.5469V25.3906C122.32 26.0938 122.379 26.8424 122.496 27.6367C122.626 28.431 122.815 29.1146 123.062 29.6875V30H119.293C119.111 29.5833 118.967 29.0299 118.863 28.3398C118.759 27.6367 118.707 26.9857 118.707 26.3867ZM119.332 17.1875L119.371 19.7266H115.719C114.69 19.7266 113.772 19.8112 112.965 19.9805C112.158 20.1367 111.48 20.3776 110.934 20.7031C110.387 21.0286 109.97 21.4388 109.684 21.9336C109.397 22.4154 109.254 22.9818 109.254 23.6328C109.254 24.2969 109.404 24.9023 109.703 25.4492C110.003 25.9961 110.452 26.4323 111.051 26.7578C111.663 27.0703 112.411 27.2266 113.297 27.2266C114.404 27.2266 115.38 26.9922 116.227 26.5234C117.073 26.0547 117.743 25.4818 118.238 24.8047C118.746 24.1276 119.02 23.4701 119.059 22.832L120.602 24.5703C120.51 25.1172 120.263 25.7227 119.859 26.3867C119.456 27.0508 118.915 27.6888 118.238 28.3008C117.574 28.8997 116.78 29.401 115.855 29.8047C114.944 30.1953 113.915 30.3906 112.77 30.3906C111.337 30.3906 110.081 30.1107 109 29.5508C107.932 28.9909 107.099 28.2422 106.5 27.3047C105.914 26.3542 105.621 25.293 105.621 24.1211C105.621 22.9883 105.842 21.9922 106.285 21.1328C106.728 20.2604 107.366 19.5378 108.199 18.9648C109.033 18.3789 110.035 17.9362 111.207 17.6367C112.379 17.3372 113.688 17.1875 115.133 17.1875H119.332ZM136.461 27.4219C137.32 27.4219 138.115 27.2461 138.844 26.8945C139.573 26.543 140.172 26.0612 140.641 25.4492C141.109 24.8242 141.376 24.1146 141.441 23.3203H144.879C144.814 24.5703 144.391 25.7357 143.609 26.8164C142.841 27.8841 141.832 28.75 140.582 29.4141C139.332 30.0651 137.958 30.3906 136.461 30.3906C134.872 30.3906 133.486 30.1107 132.301 29.5508C131.129 28.9909 130.152 28.2227 129.371 27.2461C128.603 26.2695 128.023 25.1497 127.633 23.8867C127.255 22.6107 127.066 21.263 127.066 19.8438V19.0234C127.066 17.6042 127.255 16.263 127.633 15C128.023 13.724 128.603 12.5977 129.371 11.6211C130.152 10.6445 131.129 9.8763 132.301 9.31641C133.486 8.75651 134.872 8.47656 136.461 8.47656C138.115 8.47656 139.56 8.8151 140.797 9.49219C142.034 10.1562 143.004 11.0677 143.707 12.2266C144.423 13.3724 144.814 14.6745 144.879 16.1328H141.441C141.376 15.2604 141.129 14.4727 140.699 13.7695C140.283 13.0664 139.71 12.5065 138.98 12.0898C138.264 11.6602 137.424 11.4453 136.461 11.4453C135.354 11.4453 134.423 11.6667 133.668 12.1094C132.926 12.5391 132.333 13.125 131.891 13.8672C131.461 14.5964 131.148 15.4102 130.953 16.3086C130.771 17.194 130.68 18.099 130.68 19.0234V19.8438C130.68 20.7682 130.771 21.6797 130.953 22.5781C131.135 23.4766 131.441 24.2904 131.871 25.0195C132.314 25.7487 132.906 26.3346 133.648 26.7773C134.404 27.207 135.341 27.4219 136.461 27.4219ZM152.555 0V30H148.941V0H152.555ZM151.695 18.6328L150.191 18.5742C150.204 17.1289 150.419 15.7943 150.836 14.5703C151.253 13.3333 151.839 12.2591 152.594 11.3477C153.349 10.4362 154.247 9.73307 155.289 9.23828C156.344 8.73047 157.509 8.47656 158.785 8.47656C159.827 8.47656 160.764 8.61979 161.598 8.90625C162.431 9.17969 163.141 9.6224 163.727 10.2344C164.326 10.8464 164.781 11.6406 165.094 12.6172C165.406 13.5807 165.562 14.7591 165.562 16.1523V30H161.93V16.1133C161.93 15.0065 161.767 14.1211 161.441 13.457C161.116 12.7799 160.641 12.2917 160.016 11.9922C159.391 11.6797 158.622 11.5234 157.711 11.5234C156.812 11.5234 155.992 11.7122 155.25 12.0898C154.521 12.4674 153.889 12.9883 153.355 13.6523C152.835 14.3164 152.424 15.0781 152.125 15.9375C151.839 16.7839 151.695 17.6823 151.695 18.6328Z" fill="white"/>
</svg>
