<svg width="50" height="50" viewBox="0 0 50 50" fill="none" xmlns="http://www.w3.org/2000/svg">
<path d="M20.0003 0.866667C20.3257 1.23735 20.5251 1.69099 20.5726 2.16898C20.6201 2.64697 20.5137 3.12734 20.267 3.54803C18.3398 6.86528 17.3334 10.5836 17.3403 14.361C17.3403 26.9271 28.2672 37.1026 41.7341 37.1026C43.4907 37.1026 45.2008 36.9307 46.8441 36.6025C47.3479 36.5003 47.8726 36.5394 48.3528 36.715C48.833 36.8906 49.2474 37.195 49.5442 37.5901C49.8575 38.0009 50.0172 38.4972 49.9985 39.0019C49.9798 39.5066 49.7838 39.9914 49.4408 40.3808C46.8264 43.3917 43.5282 45.8176 39.7868 47.4817C36.0453 49.1458 31.9549 50.0061 27.8138 50C12.4469 50 0 38.3932 0 24.0926C0 13.3297 7.04679 4.09805 17.0803 0.185389C17.5801 -0.0126449 18.1349 -0.0532905 18.6615 0.0695579C19.188 0.192406 19.6578 0.472115 20.0003 0.866667V0.866667ZM16.1936 4.09493C12.3356 6.0351 9.11028 8.91901 6.86055 12.4402C4.61083 15.9613 3.42073 19.9881 3.41673 24.0926C3.41673 36.6557 14.3469 46.8311 27.8138 46.8311C31.0387 46.8363 34.2326 46.2419 37.2108 45.0821C40.189 43.9223 42.8922 42.2203 45.1641 40.0746C44.0408 40.2058 42.8974 40.2714 41.7341 40.2714C26.3671 40.2714 13.9236 28.6647 13.9236 14.3641C13.9236 10.7171 14.7303 7.24506 16.1936 4.09493V4.09493Z" fill="white"/>
</svg>
